<svg width="76" height="76" viewBox="0 0 76 76" fill="none" xmlns="http://www.w3.org/2000/svg">
<g id="heroicons:building-office-2">
<path id="Vector" d="M7.125 66.5H68.875M11.875 9.5V66.5M45.125 9.5V66.5M64.125 23.75V66.5M21.375 21.375H23.75M21.375 30.875H23.75M21.375 40.375H23.75M33.25 21.375H35.625M33.25 30.875H35.625M33.25 40.375H35.625M21.375 66.5V55.8125C21.375 53.846 22.971 52.25 24.9375 52.25H32.0625C34.029 52.25 35.625 53.846 35.625 55.8125V66.5M9.5 9.5H47.5M45.125 23.75H66.5M54.625 35.625H54.6503V35.6503H54.625V35.625ZM54.625 45.125H54.6503V45.1503H54.625V45.125ZM54.625 54.625H54.6503V54.6503H54.625V54.625Z" stroke="#024731" stroke-width="5" stroke-linecap="round" stroke-linejoin="round"/>
</g>
</svg>
