<svg width="76" height="76" viewBox="0 0 76 76" fill="none" xmlns="http://www.w3.org/2000/svg">
<g id="mdi:address-marker-outline">
<path id="Vector" d="M38 20.5835C40.0997 20.5835 42.1133 21.4176 43.598 22.9022C45.0826 24.3869 45.9167 26.4005 45.9167 28.5002C45.9167 29.5398 45.7119 30.5692 45.3141 31.5297C44.9162 32.4902 44.3331 33.363 43.598 34.0981C42.8628 34.8332 41.9901 35.4164 41.0296 35.8142C40.0691 36.2121 39.0397 36.4168 38 36.4168C35.9004 36.4168 33.8868 35.5828 32.4021 34.0981C30.9174 32.6134 30.0834 30.5998 30.0834 28.5002C30.0834 26.4005 30.9174 24.3869 32.4021 22.9022C33.8868 21.4176 35.9004 20.5835 38 20.5835ZM38 6.3335C43.879 6.3335 49.5172 8.66891 53.6742 12.826C57.8313 16.983 60.1667 22.6212 60.1667 28.5002C60.1667 45.1252 38 69.6668 38 69.6668C38 69.6668 15.8334 45.1252 15.8334 28.5002C15.8334 22.6212 18.1688 16.983 22.3258 12.826C26.4829 8.66891 32.1211 6.3335 38 6.3335ZM38 12.6668C33.8008 12.6668 29.7735 14.335 26.8042 17.3043C23.8349 20.2736 22.1667 24.3009 22.1667 28.5002C22.1667 31.6668 22.1667 38.0002 38 59.2485C53.8334 38.0002 53.8334 31.6668 53.8334 28.5002C53.8334 24.3009 52.1652 20.2736 49.1959 17.3043C46.2266 14.335 42.1993 12.6668 38 12.6668Z" fill="#024731"/>
</g>
</svg>
