<svg width="76" height="76" viewBox="0 0 76 76" fill="none" xmlns="http://www.w3.org/2000/svg">
<g id="mdi:email-fast-outline">
<path id="Vector" d="M69.6667 17.4165H28.5C25.0167 17.4165 22.1667 20.2665 22.1667 23.7498V52.2498C22.1667 53.9295 22.8339 55.5404 24.0217 56.7282C25.2094 57.9159 26.8203 58.5832 28.5 58.5832H69.6667C73.1817 58.5832 76 55.7648 76 52.2498V23.7498C76 22.0701 75.3327 20.4592 74.145 19.2715C72.9573 18.0838 71.3464 17.4165 69.6667 17.4165ZM69.6667 52.2498H28.5V29.0382L49.0833 39.5832L69.6667 29.0382V52.2498ZM49.0833 34.2315L28.5 23.7498H69.6667L49.0833 34.2315ZM15.8333 52.2498C15.8333 52.7882 15.9283 53.2948 15.9917 53.8332H3.16667C1.41867 53.8332 0 52.4082 0 50.6665C0 48.9248 1.41867 47.4998 3.16667 47.4998H15.8333V52.2498ZM9.5 22.1665H15.9917C15.9283 22.7048 15.8333 23.2115 15.8333 23.7498V28.4998H9.5C7.75833 28.4998 6.33333 27.0748 6.33333 25.3332C6.33333 23.5915 7.75833 22.1665 9.5 22.1665ZM3.16667 37.9998C3.16667 36.2582 4.59167 34.8332 6.33333 34.8332H15.8333V41.1665H6.33333C4.59167 41.1665 3.16667 39.7415 3.16667 37.9998Z" fill="#024731"/>
</g>
</svg>
