<svg width="76" height="76" viewBox="0 0 76 76" fill="none" xmlns="http://www.w3.org/2000/svg">
<g id="ph:phone-call">
<path id="Vector" d="M45.2052 11.2604C45.2858 10.9589 45.425 10.6764 45.6149 10.4288C45.8048 10.1812 46.0415 9.97344 46.3117 9.8174C46.5819 9.66135 46.8802 9.56007 47.1895 9.51935C47.4989 9.47862 47.8132 9.49925 48.1146 9.58004C52.5174 10.7288 56.5344 13.0305 59.752 16.248C62.9695 19.4655 65.2711 23.4825 66.4199 27.8854C66.5007 28.1867 66.5213 28.5011 66.4806 28.8104C66.4398 29.1197 66.3386 29.418 66.1825 29.6882C66.0265 29.9584 65.8187 30.1952 65.5711 30.385C65.3235 30.5749 65.041 30.7141 64.7396 30.7947C64.5389 30.8474 64.3324 30.8744 64.125 30.8749C63.6017 30.8749 63.093 30.702 62.678 30.3831C62.263 30.0642 61.965 29.6172 61.8302 29.1114C60.8933 25.5172 59.0148 22.2379 56.3884 19.6115C53.762 16.9851 50.4827 15.1066 46.8885 14.1697C46.5868 14.0894 46.3039 13.9504 46.056 13.7607C45.8081 13.571 45.6 13.3342 45.4436 13.064C45.2873 12.7938 45.1858 12.4954 45.1449 12.1859C45.1039 11.8764 45.1244 11.5619 45.2052 11.2604ZM44.5135 23.6697C48.6074 24.7622 51.2377 27.3925 52.3302 31.4864C52.465 31.9922 52.763 32.4392 53.178 32.7581C53.593 33.077 54.1017 33.2499 54.625 33.2499C54.8324 33.2494 55.0389 33.2224 55.2396 33.1697C55.541 33.0891 55.8235 32.9499 56.0711 32.76C56.3187 32.5702 56.5265 32.3334 56.6825 32.0632C56.8386 31.793 56.9398 31.4947 56.9806 31.1854C57.0213 30.8761 57.0007 30.5617 56.9199 30.2604C55.3999 24.5722 51.4277 20.6 45.7396 19.08C45.4382 18.9995 45.1239 18.9792 44.8147 19.0201C44.5055 19.0611 44.2073 19.1625 43.9373 19.3187C43.6673 19.4749 43.4307 19.6827 43.241 19.9303C43.0513 20.1779 42.9122 20.4605 42.8317 20.7618C42.7512 21.0632 42.7308 21.3775 42.7717 21.6867C42.8127 21.9959 42.9142 22.2941 43.0703 22.5641C43.2265 22.8341 43.4343 23.0707 43.6819 23.2604C43.9295 23.4501 44.2121 23.5892 44.5135 23.6697ZM68.8394 51.9768C68.3101 55.9995 66.3345 59.692 63.2816 62.3646C60.2288 65.0372 56.3074 66.5072 52.25 66.4999C28.6782 66.4999 9.50003 47.3218 9.50003 23.7499C9.49275 19.6925 10.9627 15.7711 13.6353 12.7183C16.3079 9.66545 20.0004 7.68986 24.0232 7.16051C25.0404 7.0363 26.0705 7.24442 26.9598 7.75378C27.8491 8.26315 28.5497 9.04645 28.9572 9.98676L35.2272 23.9844V24.02C35.5392 24.7398 35.668 25.5257 35.6022 26.3074C35.5365 27.0891 35.2781 27.8424 34.8502 28.4999C34.7967 28.58 34.7403 28.6543 34.681 28.7285L28.5 36.0554C30.7236 40.5738 35.4499 45.2585 40.0277 47.488L47.2536 41.3397C47.3246 41.2801 47.3989 41.2246 47.4763 41.1735C48.1332 40.7353 48.8891 40.4678 49.6754 40.3953C50.4618 40.3227 51.2538 40.4473 51.9799 40.7579L52.0185 40.7757L66.0042 47.0427C66.9462 47.4487 67.7314 48.1488 68.2425 49.0382C68.7535 49.9276 68.9629 50.9585 68.8394 51.9768ZM64.125 51.383H64.0924L50.1392 45.1338L42.9103 51.2821C42.8402 51.3415 42.7669 51.397 42.6907 51.4483C42.0071 51.9043 41.217 52.1753 40.3974 52.2346C39.5779 52.2939 38.757 52.1396 38.0149 51.7868C32.4544 49.1 26.9117 43.599 24.2221 38.0979C23.8659 37.3612 23.7061 36.545 23.7581 35.7284C23.8101 34.9118 24.0722 34.1225 24.5189 33.4369C24.5693 33.3564 24.6259 33.28 24.6882 33.2083L30.875 25.8725L24.6407 11.9194C24.6395 11.9076 24.6395 11.8956 24.6407 11.8838C21.7617 12.2593 19.1184 13.6715 17.2057 15.8557C15.2931 18.04 14.2422 20.8466 14.25 23.7499C14.261 33.8247 18.2681 43.4838 25.3921 50.6078C32.5161 57.7318 42.1752 61.7389 52.25 61.7499C55.1516 61.7599 57.9574 60.7127 60.1429 58.8042C62.3284 56.8957 63.744 54.2565 64.125 51.38V51.383Z" fill="#024731"/>
</g>
</svg>
