<svg width="76" height="76" viewBox="0 0 76 76" fill="none" xmlns="http://www.w3.org/2000/svg">
<g id="healthicons:agriculture-outline">
<g id="Group">
<path id="Vector" fill-rule="evenodd" clip-rule="evenodd" d="M66.4052 11.8069L64.8424 11.5583L64.4323 10.0288L66.7899 9.39551L66.4052 11.8069ZM45.4735 33.7044L44.1261 34.5341L44.1229 34.5309L44.1182 34.523L44.1023 34.4977L44.0485 34.4074C44.0042 34.3314 43.9377 34.2206 43.8585 34.0797C43.6367 33.692 43.4229 33.2998 43.2173 32.9033C42.5665 31.6568 41.9984 30.3689 41.5168 29.0478C40.9816 27.5532 40.5224 25.8416 40.4512 24.1854C40.3815 22.5356 40.6887 20.7448 41.9173 19.3404C43.0209 18.0801 45.1014 16.9195 47.288 15.9157C49.5538 14.8723 52.2201 13.8716 54.7455 13.0055C57.8736 11.9372 61.0333 10.9635 64.2202 10.0858L64.3785 10.0415L64.4339 10.0257L64.8456 11.5568L66.4083 11.8053L66.3988 11.8639L66.3719 12.0318C66.2138 13.0031 66.0481 13.9732 65.8748 14.9419C65.453 17.3242 64.9927 19.6995 64.4941 22.0669C63.9304 24.7285 63.2749 27.5183 62.5798 29.8538C62.2714 30.9219 61.9083 31.9736 61.4921 33.0046C61.1311 33.8754 60.7036 34.7209 60.1843 35.3163C59.0728 36.5861 57.3422 36.9835 55.8301 37.0848C54.2531 37.1909 52.5051 36.9993 50.9328 36.7207C49.5306 36.4681 48.1419 36.1457 46.7718 35.7548C46.2112 35.597 45.6538 35.428 45.0998 35.2482L45.0001 35.2133L44.9732 35.2038L44.9653 35.2023H44.9621L45.4751 33.7028L45.4735 33.7044ZM45.4735 33.7044L44.1261 34.5341L44.4237 35.017L44.9621 35.2023L45.4735 33.7044ZM46.5375 32.3855C48.1585 32.8915 49.8087 33.2986 51.4791 33.6047C52.9421 33.8628 54.4051 34.0084 55.6179 33.9261C56.8988 33.8406 57.5417 33.5271 57.7998 33.2326C57.9644 33.0426 58.2336 32.5929 58.5661 31.7918C58.94 30.8628 59.2661 29.9152 59.543 28.9528C60.2032 26.7362 60.8382 24.0398 61.3955 21.413C61.9303 18.8716 62.4202 16.321 62.8648 13.7623L62.3756 13.9048C60.6197 14.4226 58.2478 15.1525 55.7731 16.0012C53.2936 16.8514 50.7397 17.8125 48.6101 18.7926C46.3998 19.8091 44.9083 20.7322 44.3003 21.4273C43.8142 21.9814 43.564 22.8348 43.6163 24.0493C43.6669 25.2573 44.0137 26.6301 44.4982 27.9775C45.0528 29.5016 45.735 30.9761 46.5375 32.3855ZM16.2499 15.7922L15.8398 17.3217L14.2755 17.5703L13.8923 15.1604L16.2515 15.7938L16.2499 15.7922ZM31.5798 35.3194L32.9272 36.1475L32.9303 36.1443L32.9335 36.138L32.9462 36.1174L32.9921 36.0414C33.2308 35.6347 33.4589 35.2219 33.6761 34.8033C34.0941 33.9989 34.6277 32.8763 35.0742 31.635C35.5143 30.4063 35.8975 28.9829 35.9561 27.5959C36.0163 26.2137 35.7597 24.6715 34.6926 23.4523C33.7489 22.3725 32.0025 21.4098 30.2292 20.5928C28.3751 19.7394 26.198 18.9224 24.1413 18.2178C21.5939 17.3478 19.0208 16.5547 16.4257 15.8397L16.2958 15.8048L16.2499 15.7922L15.8398 17.3217L14.2755 17.5703L14.2834 17.6178L14.3056 17.7555L14.3911 18.2717C14.8183 20.8328 15.2992 23.3846 15.8335 25.9255C16.2927 28.0915 16.8278 30.3668 17.3947 32.2747C17.6797 33.2278 17.9773 34.1161 18.2892 34.865C18.5853 35.5775 18.9479 36.3043 19.4039 36.8236C20.3856 37.9478 21.8945 38.2803 23.1438 38.3626C24.4611 38.4513 25.9067 38.2913 27.1971 38.0649C28.8173 37.774 30.4151 37.3698 31.9788 36.8553L32.0595 36.8283L32.0833 36.8204L32.0912 36.8173L31.5798 35.3194ZM31.5798 35.3194L32.9272 36.1475L32.6295 36.632L32.0912 36.8173L31.5798 35.3194ZM30.5142 33.9989C31.1328 32.8995 31.6608 31.7515 32.0927 30.5663C32.4807 29.4848 32.753 28.4003 32.7926 27.4598C32.8338 26.5129 32.6343 25.9081 32.3097 25.536C31.8616 25.0262 30.7058 24.2978 28.9055 23.4698C27.1892 22.6797 25.1245 21.9023 23.1137 21.2135C21.362 20.6155 19.5977 20.0549 17.8222 19.532L17.8285 19.5716C18.0977 21.0916 18.4808 23.1436 18.9321 25.27C19.3833 27.4012 19.8979 29.5814 20.4299 31.3722C20.6975 32.2683 20.9603 33.0426 21.2137 33.6506C21.4828 34.295 21.6855 34.6228 21.7868 34.7399C21.9167 34.8872 22.3363 35.1358 23.3559 35.2038C24.3075 35.2672 25.4697 35.1532 26.6477 34.9458C27.9549 34.7101 29.2462 34.3949 30.5142 33.9989ZM27.0467 49.0944C26.6445 49.1166 26.4482 49.1736 26.3975 49.1958C25.6803 49.5203 23.5016 50.2803 21.6206 50.9216C20.6548 51.2525 19.7285 51.5628 19.0445 51.7924L19.0002 51.8083V60.363C19.2788 60.3503 19.5781 60.3393 19.8837 60.3282C21.1947 60.2807 22.7543 60.2332 23.4303 60.2617C26.2677 60.3741 28.3988 61.0454 30.3717 61.6677L30.4144 61.6819C32.2638 62.2646 33.9769 62.7998 36.2205 62.9692C36.8538 63.0167 37.4698 63.0784 38.0445 63.1354H38.0524C40.2596 63.3571 41.7131 63.4679 42.8388 63.0594C43.7144 62.7412 46.9207 61.2544 50.1538 59.6283C51.753 58.824 53.3205 58.0054 54.5666 57.304C55.192 56.9525 55.7224 56.639 56.1293 56.3762C56.332 56.2448 56.4935 56.1339 56.617 56.0437C56.6655 56.0081 56.7131 55.9711 56.7595 55.9328L56.8038 55.8948C56.9622 55.7349 57.13 55.1776 56.8577 54.6535C56.7295 54.4084 56.5177 54.2174 56.2608 54.1152C55.9441 53.9774 55.4058 53.8713 54.5508 54.0123C52.6222 54.3289 50.3185 55.2568 48.0179 56.1925L47.9862 56.2068C46.8557 56.6659 45.7221 57.1267 44.7167 57.4623C43.7508 57.7838 42.6789 58.0719 41.7448 58.0165C40.4623 57.9373 38.2123 57.6048 36.3567 57.304C35.2903 57.1316 34.2252 56.9511 33.1615 56.7625L32.9557 56.7261L32.8828 56.7118L33.1837 53.5705L40.4195 53.6576H40.4353C40.5199 53.6484 40.6035 53.6326 40.6855 53.6101C40.9357 53.5468 41.3648 53.39 41.9047 53.0084C42.0709 52.8897 42.2894 52.6712 42.4937 52.3783C42.5727 52.2635 42.6446 52.144 42.709 52.0204C41.8268 51.9643 40.9502 51.8404 40.087 51.6499C39.6169 51.5476 39.1506 51.4288 38.6889 51.2937L38.6351 51.2778L29.7732 49.305L29.6892 49.2908C29.2175 49.2124 28.7426 49.1543 28.2658 49.1166C27.8603 49.0829 27.4531 49.0755 27.0467 49.0944ZM30.0835 47.7533L30.3701 46.1969L30.3986 46.2017L39.4521 48.2157L39.5186 48.2363L39.5312 48.241L39.5914 48.2584L39.8416 48.3297C40.0617 48.3898 40.3783 48.4722 40.7552 48.5545C41.5247 48.7208 42.4873 48.8743 43.3772 48.8743C44.2686 48.8743 45.2376 49.2068 45.7601 50.1537C46.2066 50.9643 46.0958 51.8415 45.939 52.421C45.7935 52.9334 45.5766 53.4227 45.2946 53.8745C45.7759 53.6845 46.2873 53.4787 46.8241 53.2602L46.9223 53.219C49.1041 52.3323 51.7197 51.2683 54.0362 50.8868C56.7278 50.4466 58.7466 51.4124 59.6697 53.1984C60.4835 54.7738 60.303 56.8512 59.0601 58.1147C58.7482 58.4313 58.2842 58.7528 57.8409 59.0393C57.2763 59.3967 56.7019 59.7383 56.1183 60.0638C54.812 60.7984 53.1954 61.6423 51.5741 62.4578C48.3726 64.068 45.0001 65.6434 43.9171 66.0361C42.0393 66.7169 39.8669 66.5 37.9368 66.3068L37.7358 66.2863C37.1516 66.2264 36.5668 66.1736 35.9814 66.1279C33.3531 65.9284 31.3391 65.2935 29.4993 64.714L29.4597 64.7013C27.4805 64.0775 25.6977 63.5218 23.3037 63.4252C22.778 63.4046 21.3625 63.4426 19.9977 63.4933C19.2291 63.5211 18.4606 63.5523 17.6923 63.5867L17.4881 63.5962L15.8319 63.6722V49.5235L17.2205 49.0628C18.3472 48.6883 19.4725 48.3094 20.5962 47.9259C22.5658 47.253 24.5513 46.5548 25.0928 46.3109C25.6739 46.0481 26.3342 45.9626 26.863 45.9309C27.4251 45.8993 28.003 45.923 28.5081 45.961C29.1161 46.0086 29.7215 46.0842 30.3226 46.1874L30.3558 46.1938H30.3653L30.3685 46.1953H30.3717L30.0835 47.7533Z" fill="white"/>
<path id="Vector_2" fill-rule="evenodd" clip-rule="evenodd" d="M55.6544 20.9633C55.8124 21.0985 55.9423 21.2634 56.0366 21.4487C56.1308 21.6341 56.1877 21.8362 56.2039 22.0435C56.22 22.2508 56.1952 22.4593 56.1308 22.657C56.0664 22.8547 55.9637 23.0378 55.8285 23.1958C51.1086 28.7026 45.2329 36.7729 42.6394 43.3326C42.5629 43.526 42.449 43.7024 42.3043 43.8518C42.1596 44.0012 41.9869 44.1206 41.7961 44.2032C41.6052 44.2858 41.4 44.3301 41.1921 44.3334C40.9841 44.3367 40.7776 44.299 40.5842 44.2225C40.3908 44.146 40.2144 44.0321 40.0651 43.8874C39.9157 43.7427 39.7963 43.57 39.7137 43.3792C39.631 43.1883 39.5868 42.9831 39.5835 42.7752C39.5802 42.5672 39.6179 42.3607 39.6944 42.1673C42.4858 35.1072 48.6418 26.714 53.4219 21.1359C53.6953 20.8172 54.084 20.6201 54.5027 20.5881C54.9214 20.556 55.3356 20.6915 55.6544 20.9649V20.9633ZM24.3519 26.0426C24.1886 26.1715 24.0523 26.3313 23.9508 26.5129C23.8493 26.6944 23.7846 26.8942 23.7603 27.1008C23.7361 27.3074 23.7527 27.5167 23.8094 27.7169C23.8661 27.917 23.9616 28.104 24.0906 28.2672C27.6405 32.7718 31.5165 38.5367 33.3563 43.3184C33.5142 43.7 33.8151 44.0048 34.1946 44.1678C34.5742 44.3307 35.0024 44.3389 35.3879 44.1906C35.7734 44.0423 36.0856 43.7492 36.258 43.3738C36.4305 42.9985 36.4494 42.5707 36.3108 42.1816C34.2984 36.9502 30.1865 30.8845 26.5765 26.3071C26.3167 25.9773 25.9366 25.7642 25.5197 25.7146C25.1028 25.665 24.6818 25.783 24.3519 26.0426Z" fill="white"/>
<path id="Vector_3" d="M9.5 45.9167H19V66.5H9.5V45.9167Z" fill="white"/>
</g>
</g>
</svg>
